<svg xmlns="http://www.w3.org/2000/svg" viewBox="0 -50 512.00131 512">
  <path d="M506.046875 7.789062c-6.140625-6.871093-15.425781-9.445312-24.226563-6.71875L28.324219 141.628906C13.097656 146.347656 2.375 159.105469.339844 174.917969c-2.03125 15.8125 5.117187 30.863281 18.65625 39.28125L59.25 239.21875l41.046875 114.5625c1.097656 3.066406 3.980469 4.976562 7.058594 4.976562.839843 0 1.695312-.144531 2.53125-.441406 3.898437-1.398437 5.929687-5.691406 4.53125-9.589844L74.707031 237.890625 446.105469 46.679688l-283.878907 245.09375c-.015624.011718-.027343.027343-.039062.039062-.199219.175781-.390625.359375-.570312.554688-.046876.050781-.089844.105468-.136719.15625-.132813.15625-.261719.3125-.386719.480468-.050781.070313-.097656.140625-.148438.210938-.105468.160156-.207031.320312-.304687.484375-.042969.074219-.085937.152343-.125.226562-.09375.171875-.175781.347657-.253906.523438-.03125.074219-.066407.148437-.097657.226562-.074218.1875-.140624.382813-.199218.578125-.023438.070313-.046875.136719-.066406.207032-.070313.253906-.128907.515624-.171876.777343 0 .011719-.003906.023438-.007812.035157v.003906l-14.941406 94.394531c-.226563 1.445313-.722656 2.558594-1.34375 3.433594-.097656.121093-.195313.246093-.285156.371093-1.742188 2.109376-4.273438 2.558594-5.246094 2.648438-1.394532.125-6.089844.152344-7.957032-5.0625l-3.808593-10.625c-1.398438-3.902344-5.695313-5.933594-9.589844-4.53125-3.898437 1.394531-5.929687 5.6875-4.53125 9.589844l3.808594 10.625c3.296875 9.210937 11.667969 15.042968 21.246093 15.042968.734376 0 1.480469-.035156 2.230469-.105468 6.328125-.59375 11.792969-3.625 15.507813-8.210938.015625-.019531.03125-.03125.046875-.050781l60.75-67.382813 71.09375 44.199219c9.105469 5.660157 19.503906 8.566407 29.992187 8.566407 5.648438 0 11.328125-.84375 16.84375-2.558594 15.753906-4.886719 28.585938-16.355469 35.203125-31.46875l97.335938-222.226563c1.660156-3.792969-.070313-8.214843-3.863281-9.878906-3.792969-1.660156-8.214844.066406-9.878907 3.863281L355 349.136719c-4.871094 11.121093-14.316406 19.5625-25.910156 23.160156s-24.15625 1.984375-34.46875-4.425781l-114.875-71.410156L496.972656 22.582031c.101563 1.1875-.058594 2.539063-.703125 4.015625l-29.523437 67.40625c-1.660156 3.792969.066406 8.214844 3.863281 9.878906 3.792969 1.660157 8.214844-.066406 9.878906-3.863281l29.519531-67.402343c3.699219-8.441407 2.179688-17.957032-3.960937-24.828126zM202.660156 328.371094l-39.824218 44.179687 9.933593-62.761719zM65.777344 225.617188l-38.859375-24.160157c-8.617188-5.355469-12.992188-14.5625-11.695313-24.628906 1.292969-10.0625 7.851563-17.867187 17.542969-20.871094L455.695312 24.871094zm0 0"/>
</svg>
