<svg xmlns="http://www.w3.org/2000/svg" viewBox="0 0 512.002 512.002">
  <path d="M504.5 248.501H383.742v-17.064h32.581c4.142 0 7.5-3.358 7.5-7.5 0-4.142-3.358-7.5-7.5-7.5h-32.581v-17.065h22.62c8.427 0 16.35-3.281 22.308-9.24l49.326-49.326c3.214 1.601 6.777 2.453 10.473 2.453 6.286 0 12.195-2.448 16.64-6.892 4.445-4.445 6.893-10.354 6.893-16.64 0-6.286-2.448-12.195-6.893-16.64-4.444-4.445-10.354-6.893-16.64-6.893s-12.195 2.448-16.64 6.892c-4.445 4.445-6.893 10.354-6.893 16.64 0 3.696.852 7.259 2.453 10.473l-49.326 49.326c-3.125 3.125-7.281 4.847-11.702 4.847h-22.62v-16.548c0-21.816-17.749-39.564-39.564-39.564h-16.548V61.865c9.308-3.139 16.032-11.946 16.032-22.3 0-12.976-10.557-23.532-23.532-23.532s-23.532 10.557-23.532 23.532c0 10.354 6.724 19.16 16.032 22.3v66.394h-17.064V95.678c0-4.142-3.358-7.5-7.5-7.5-4.142 0-7.5 3.358-7.5 7.5v32.581H263.5V7.501c0-4.142-3.358-7.5-7.5-7.5-4.142 0-7.5 3.358-7.5 7.5v120.758h-17.064V95.678c0-4.142-3.358-7.5-7.5-7.5-4.142 0-7.5 3.358-7.5 7.5v32.581h-17.064V105.64c0-8.427-3.282-16.35-9.241-22.308l-49.343-49.343c4.359-8.801 2.898-19.775-4.421-27.095-9.176-9.175-24.105-9.174-33.28 0-9.175 9.175-9.175 24.104 0 33.28 4.588 4.587 10.614 6.881 16.64 6.881 3.588 0 7.17-.833 10.455-2.46l49.343 49.344c3.126 3.125 4.847 7.281 4.847 11.701v22.619h-16.548c-3.345 0-6.672.42-9.888 1.247-4.011 1.032-6.426 5.121-5.394 9.133 1.032 4.012 5.122 6.427 9.133 5.394 1.995-.513 4.063-.774 6.148-.774h176.354c13.545 0 24.564 11.02 24.564 24.564v176.355c0 2.083-.26 4.15-.772 6.143-1.031 4.012 1.385 8.1 5.396 9.131.626.161 1.254.238 1.873.238 3.341 0 6.388-2.249 7.258-5.635.826-3.212 1.245-6.536 1.245-9.878v-16.548h66.394c3.139 9.308 11.946 16.032 22.3 16.032 12.976 0 23.532-10.556 23.532-23.532s-10.557-23.532-23.532-23.532c-10.354 0-19.16 6.724-22.3 16.032h-66.394v-17.065h32.581c4.142 0 7.5-3.358 7.5-7.5 0-4.142-3.358-7.5-7.5-7.5h-32.581v-17.063H504.5c4.142 0 7.5-3.358 7.5-7.5 0-4.142-3.358-7.5-7.5-7.5zm-22.065-134.807c1.612-1.612 3.754-2.499 6.033-2.499s4.421.887 6.033 2.499 2.499 3.754 2.499 6.033-.887 4.421-2.499 6.033-3.754 2.499-6.033 2.499-4.421-.887-6.033-2.499-2.499-3.754-2.499-6.033.887-4.422 2.499-6.033zM125.759 29.568c-3.326 3.325-8.739 3.326-12.067-.001-3.327-3.327-3.327-8.74 0-12.066 1.664-1.664 3.848-2.495 6.034-2.495 2.185 0 4.37.832 6.033 2.495 3.327 3.327 3.327 8.74 0 12.067zm194.37 18.529c-4.704 0-8.532-3.828-8.532-8.532 0-4.704 3.827-8.532 8.532-8.532s8.532 3.828 8.532 8.532c0 4.704-3.828 8.532-8.532 8.532zm152.307 263.501c4.705 0 8.532 3.828 8.532 8.532 0 4.705-3.828 8.532-8.532 8.532-4.704 0-8.532-3.828-8.532-8.532-.001-4.705 3.827-8.532 8.532-8.532zM408.914 471.829c-7.319-7.32-18.294-8.781-27.095-4.422l-49.343-49.344c-3.126-3.125-4.847-7.281-4.847-11.701v-22.619h16.548c3.345 0 6.671-.42 9.886-1.247 4.011-1.032 6.426-5.121 5.394-9.133-1.032-4.011-5.119-6.426-9.133-5.394-1.994.513-4.062.773-6.147.773H167.823c-13.545 0-24.564-11.02-24.564-24.564V167.824c0-2.085.26-4.153.773-6.146 1.033-4.011-1.382-8.1-5.393-9.133-4.012-1.033-8.101 1.382-9.133 5.393-.828 3.214-1.247 6.54-1.247 9.886v16.548H61.864c-3.139-9.308-11.946-16.032-22.3-16.032-12.976 0-23.532 10.556-23.532 23.532s10.557 23.532 23.532 23.532c10.354 0 19.16-6.724 22.3-16.032h66.394v17.065H95.677c-4.142 0-7.5 3.358-7.5 7.5 0 4.142 3.358 7.5 7.5 7.5h32.581v17.064H7.5c-4.142 0-7.5 3.358-7.5 7.5 0 4.142 3.358 7.5 7.5 7.5h120.758v17.064H95.677c-4.142 0-7.5 3.358-7.5 7.5 0 4.142 3.358 7.5 7.5 7.5h32.581v17.065h-22.62c-8.427 0-16.35 3.281-22.308 9.24l-49.326 49.326c-3.214-1.601-6.777-2.453-10.473-2.453-6.286 0-12.195 2.448-16.64 6.892C2.448 380.08 0 385.99 0 392.275s2.448 12.195 6.893 16.64c4.444 4.445 10.354 6.892 16.64 6.892 6.286 0 12.195-2.448 16.64-6.892 4.445-4.445 6.893-10.354 6.893-16.64 0-3.696-.852-7.259-2.453-10.473l49.326-49.326c3.125-3.125 7.281-4.847 11.702-4.847h22.62v16.548c0 21.816 17.749 39.564 39.564 39.564h16.548v66.394c-9.308 3.139-16.032 11.946-16.032 22.3 0 12.976 10.557 23.532 23.532 23.532s23.532-10.557 23.532-23.532c0-10.354-6.724-19.16-16.032-22.3v-66.394h17.064v32.581c0 4.142 3.358 7.5 7.5 7.5 4.142 0 7.5-3.358 7.5-7.5v-32.581H248.5v120.76c0 4.142 3.358 7.5 7.5 7.5 4.142 0 7.5-3.358 7.5-7.5V383.743h17.064v32.581c0 4.142 3.358 7.5 7.5 7.5 4.142 0 7.5-3.358 7.5-7.5v-32.581h17.064v22.619c0 8.427 3.282 16.35 9.241 22.308l49.343 49.343c-4.359 8.801-2.898 19.775 4.422 27.095 4.587 4.588 10.614 6.881 16.64 6.881s12.053-2.293 16.64-6.881c9.175-9.175 9.175-24.104 0-33.279zM39.564 200.404c-4.705 0-8.532-3.828-8.532-8.532 0-4.705 3.828-8.532 8.532-8.532 4.704 0 8.532 3.828 8.532 8.532.001 4.705-3.827 8.532-8.532 8.532zm-9.999 197.904c-1.612 1.612-3.754 2.499-6.033 2.499s-4.421-.887-6.033-2.499S15 394.554 15 392.275s.887-4.421 2.499-6.033 3.754-2.499 6.033-2.499 4.421.887 6.033 2.499 2.499 3.754 2.499 6.033-.887 4.422-2.499 6.033zm170.838 74.129c0 4.704-3.827 8.532-8.532 8.532s-8.532-3.828-8.532-8.532c0-4.704 3.828-8.532 8.532-8.532 4.704 0 8.532 3.828 8.532 8.532zm197.905 22.065c-3.327 3.327-8.74 3.326-12.067 0-3.327-3.327-3.327-8.74 0-12.066 1.664-1.663 3.849-2.495 6.034-2.495s4.37.832 6.033 2.495c3.326 3.326 3.326 8.739 0 12.066z"/>
  <path d="M335.645 235.962c0-16.04-11.732-29.627-27.793-34.042.475-1.961.739-3.978.739-6.039 0-15.186-13.479-27.541-30.045-27.541-8.974 0-17.035 3.629-22.545 9.365-5.51-5.736-13.572-9.365-22.545-9.365-16.567 0-30.045 12.355-30.045 27.541 0 2.061.264 4.078.739 6.039-16.061 4.414-27.793 18.001-27.793 34.042 0 7.839 2.774 15.235 7.899 21.343-5.011 6.487-7.899 14.362-7.899 22.746-.002 12.752 6.812 24.659 18.035 32.045v.018c0 17.396 15.501 31.549 34.555 31.549 10.95 0 20.719-4.679 27.054-11.957 6.335 7.278 16.104 11.957 27.054 11.957 18.337 0 33.376-13.11 34.482-29.602 11.137-6.462 18.108-17.781 18.108-30.003 0-8.99-3.833-17.566-10.43-24.048 6.596-6.482 10.43-15.059 10.43-24.048zm-26.544 30.68c7.227 3.814 11.541 10.325 11.541 17.416 0 5.287-2.457 10.33-6.607 14.101-3.943-7.301-10.912-13.113-19.717-15.879-3.95-1.241-8.161.956-9.403 4.907-1.242 3.952.956 8.162 4.907 9.403 7.646 2.403 12.784 8.642 12.784 15.525 0 9.125-8.772 16.549-19.555 16.549-10.782 0-19.554-7.424-19.554-16.549v-48.097c0-9.125 8.772-16.548 19.554-16.548 4.142 0 7.5-3.358 7.5-7.5 0-4.142-3.358-7.5-7.5-7.5-7.254 0-13.99 2.056-19.554 5.557v-9.58c0-4.142-3.358-7.5-7.5-7.5-4.142 0-7.5 3.358-7.5 7.5v41.637c-2.524-1.584-5.292-2.895-8.286-3.836-3.954-1.242-8.162.956-9.403 4.906-1.242 3.952.955 8.162 4.906 9.404 7.646 2.403 12.783 8.642 12.783 15.524v16.032c0 9.125-8.772 16.549-19.554 16.549-10.783 0-19.555-7.424-19.555-16.549 0-3.911 1.658-7.713 4.668-10.705 2.938-2.92 2.952-7.669.032-10.607-2.92-2.938-7.668-2.952-10.606-.032-1.797 1.787-3.344 3.739-4.63 5.814-4.736-4.48-7.501-10.374-7.501-16.535 0-11.112 8.721-20.874 21.208-23.739 4.037-.926 6.559-4.95 5.633-8.987-.926-4.038-4.951-6.559-8.987-5.633-5.027 1.153-9.655 3.078-13.759 5.605-2.661-3.342-4.094-7.256-4.094-11.335.003-11.281 10.697-20.465 23.88-20.552.067.002.134.011.2.011 1.712 0 3.433-.583 4.842-1.776 2.875-2.434 3.452-6.564 1.522-9.671-.057-.092-.109-.186-.169-.275-.031-.045-.068-.088-.1-.133-.116-.163-.235-.323-.364-.477-.004-.005-.007-.01-.011-.014-1.251-1.479-2.744-3.927-2.744-7.193 0-6.915 6.75-12.541 15.045-12.541s15.045 5.626 15.045 12.541c0 4.142 3.358 7.5 7.5 7.5 4.142 0 7.5-3.358 7.5-7.5 0-6.915 6.75-12.541 15.045-12.541s15.045 5.626 15.045 12.541c0 1.848-.484 3.424-1.125 4.72-4.266.403-8.392 1.434-12.309 3.086-3.817 1.609-5.606 6.008-3.997 9.825 1.609 3.816 6.008 5.607 9.825 3.997 3.242-1.367 6.73-2.07 10.368-2.098.072.002.143.009.215.009.067 0 .133-.009.2-.011 13.183.086 23.877 9.271 23.877 20.552 0 7.091-4.314 13.601-11.541 17.416-2.46 1.298-4 3.851-4 6.633s1.54 5.335 4 6.633z"/>
</svg>
