<svg fill="none" xmlns="http://www.w3.org/2000/svg" viewBox="0 0 60 60">
  <g clip-path="url(#clip0)" fill="#000">
    <path d="M59.362 24.3825L30.921 3.55868c-.5484-.40148-1.2935-.40148-1.8417 0L.638154 24.3825c-.6946877.5088-.845625 1.4842-.336914 2.1789.50871.6947 1.4843.8454 2.17887.3369L30.0001 6.74864 57.52 26.8982c.2775.2033.6.3012.9197.3012.48 0 .9537-.2209 1.2591-.6381.5088-.6946.3579-1.67-.3368-2.1788z"/>
    <path d="M51.8255 27.2512c-.8609 0-1.559.698-1.559 1.559v24.8143H37.7952V40.0793c0-4.2985-3.4971-7.7953-7.7953-7.7953s-7.7953 3.4971-7.7953 7.7953v13.5453H9.73312V28.8103c0-.861-.69808-1.559-1.55894-1.559s-1.55895.698-1.55895 1.559v26.3734c0 .861.69809 1.5589 1.55895 1.5589H23.7635c.8199 0 1.4908-.6334 1.5529-1.4375.0037-.0365.0061-.0763.0061-.1214V40.0794c0-2.5792 2.0982-4.6774 4.6774-4.6774 2.5792 0 4.6774 2.0983 4.6774 4.6774v15.1043c0 .0449.0024.084.0061.12.0614.8047.7325 1.4389 1.5528 1.4389h15.5894c.861 0 1.5589-.6979 1.5589-1.5589V28.8103c-.0001-.8611-.6981-1.5591-1.559-1.5591z"/>
  </g>
  <defs>
    <clipPath id="clip0">
      <path fill="#fff" d="M0 0h60v60H0z"/>
    </clipPath>
  </defs>
</svg>
