<svg width="50" height="50" viewBox="0 0 50 50" fill="none" xmlns="http://www.w3.org/2000/svg">
<path d="M47.5 42.4999H2.5C1.12002 42.4999 0 43.6199 0 44.9999C0 46.38 1.12002 47.5 2.5 47.5H47.5C48.88 47.5 50 46.38 50 44.9998C50 43.6199 48.88 42.4999 47.5 42.4999ZM2.5 7.49991H47.5C48.88 7.49991 50 6.37997 50 4.99991C50 3.61984 48.88 2.49991 47.5 2.49991H2.5C1.12002 2.49999 0 3.61993 0 4.99999C0 6.37997 1.12002 7.49991 2.5 7.49991ZM47.5 22.4999H2.5C1.12002 22.4999 0 23.6199 0 25C0 26.3801 1.12002 27.5 2.5 27.5H47.5C48.88 27.5 50 26.38 50 25C50 23.62 48.88 22.4999 47.5 22.4999Z" fill="black"/>
</svg>
