<svg width="70" height="70" viewBox="0 0 70 70" fill="none" xmlns="http://www.w3.org/2000/svg">
<path d="M67.962 12.4419C67.9578 12.4419 67.9535 12.4414 67.9492 12.4414H49.3555V10.3906C49.3555 6.99829 46.5955 4.23828 43.2031 4.23828H26.7969C23.4045 4.23828 20.6445 6.99829 20.6445 10.3906V12.4414H2.05078C0.908966 12.4414 0 13.3771 0 14.4922V59.6094C0 63.0017 2.76001 65.7617 6.15234 65.7617H63.8477C67.24 65.7617 70 63.0017 70 59.6094V14.5354C70 14.5328 70 14.5301 70 14.5274C69.9215 13.1805 69.0932 12.4494 67.962 12.4419ZM24.7461 10.3906C24.7461 9.26003 25.6663 8.33984 26.7969 8.33984H43.2031C44.3337 8.33984 45.2539 9.26003 45.2539 10.3906V12.4414H24.7461V10.3906ZM65.1038 16.543L58.7351 35.6483C58.4558 36.4874 57.674 37.0508 56.7901 37.0508H45.2539V35C45.2539 33.8673 44.3359 32.9492 43.2031 32.9492H26.7969C25.6641 32.9492 24.7461 33.8673 24.7461 35V37.0508H13.2099C12.326 37.0508 11.5442 36.4874 11.2649 35.6483L4.89624 16.543H65.1038ZM41.1523 37.0508V41.1523H28.8477V37.0508H41.1523ZM65.8984 59.6094C65.8984 60.74 64.9783 61.6602 63.8477 61.6602H6.15234C5.02174 61.6602 4.10156 60.74 4.10156 59.6094V27.1296L7.37373 36.9456C8.2122 39.4621 10.5578 41.1523 13.2099 41.1523H24.7461V43.2031C24.7461 44.3359 25.6641 45.2539 26.7969 45.2539H43.2031C44.3359 45.2539 45.2539 44.3359 45.2539 43.2031V41.1523H56.7901C59.4422 41.1523 61.7878 39.4621 62.6263 36.9456L65.8984 27.1296V59.6094Z" fill="white"/>
</svg>
